<?xml version="1.0" encoding="UTF-8" standalone="no"?>
<svg
   width="900"
   zoomAndPan="magnify"
   viewBox="0 0 675 675.000002"
   height="900"
   preserveAspectRatio="xMidYMid meet"
   version="1.0"
   id="svg30"
   sodipodi:docname="about values.svg"
   inkscape:version="1.2.1 (9c6d41e410, 2022-07-14)"
   xmlns:inkscape="http://www.inkscape.org/namespaces/inkscape"
   xmlns:sodipodi="http://sodipodi.sourceforge.net/DTD/sodipodi-0.dtd"
   xmlns="http://www.w3.org/2000/svg"
   xmlns:svg="http://www.w3.org/2000/svg">
  <sodipodi:namedview
     id="namedview32"
     pagecolor="#ffffff"
     bordercolor="#000000"
     borderopacity="0.25"
     inkscape:showpageshadow="2"
     inkscape:pageopacity="0.0"
     inkscape:pagecheckerboard="0"
     inkscape:deskcolor="#d1d1d1"
     showgrid="false"
     inkscape:zoom="0.98888889"
     inkscape:cx="435.33708"
     inkscape:cy="450.50562"
     inkscape:window-width="1920"
     inkscape:window-height="1051"
     inkscape:window-x="-9"
     inkscape:window-y="-9"
     inkscape:window-maximized="1"
     inkscape:current-layer="svg30" />
  <defs
     id="defs8">
    <clipPath
       id="d4d696ad9f">
      <path
         d="M 0.5 0 L 674.5 0 L 674.5 674 L 0.5 674 Z M 0.5 0 "
         clip-rule="nonzero"
         id="path2" />
    </clipPath>
    <clipPath
       id="a114af6152">
      <path
         d="M 0.5 381 L 122 381 L 122 612 L 0.5 612 Z M 0.5 381 "
         clip-rule="nonzero"
         id="path5" />
    </clipPath>
  </defs>
  <path
     fill="#000000"
     d="M 359.847656 283.230469 C 355.730469 283.230469 352.40625 279.890625 352.40625 275.78125 L 352.40625 195.042969 C 352.40625 193.03125 353.21875 191.105469 354.648438 189.707031 C 369.675781 175.09375 378.644531 152.027344 378.644531 128.015625 C 378.644531 101.359375 367.832031 76.601562 350.148438 61.996094 C 332.578125 76.671875 321.859375 101.433594 321.859375 128.015625 C 321.859375 152.035156 330.84375 175.09375 345.855469 189.699219 C 348.816406 192.570312 348.878906 197.285156 346.015625 200.234375 C 343.136719 203.183594 338.445312 203.25 335.488281 200.386719 C 317.359375 182.773438 306.976562 156.390625 306.976562 128.015625 C 306.976562 94.570312 321.859375 63.355469 345.839844 46.535156 C 348.402344 44.746094 351.773438 44.738281 354.367188 46.511719 C 378.886719 63.488281 393.535156 93.957031 393.535156 128.015625 C 393.535156 155.183594 384.007812 180.53125 367.292969 198.105469 L 367.292969 275.78125 C 367.289062 279.890625 363.964844 283.230469 359.847656 283.230469 Z M 359.847656 283.230469 "
     fill-opacity="1"
     fill-rule="nonzero"
     id="path16"
     style="fill:#003399;fill-opacity:1" />
  <path
     fill="#000000"
     d="M 503.78125 424.746094 C 501.859375 424.746094 499.949219 424.007812 498.488281 422.535156 C 484.253906 408.152344 471.515625 395.046875 460.035156 383.21875 C 408.460938 330.136719 382.574219 303.492188 359.210938 303.492188 C 335.867188 303.5 310.074219 330.074219 258.675781 383.011719 L 250.152344 391.796875 C 247.273438 394.753906 242.566406 394.8125 239.625 391.949219 C 236.667969 389.078125 236.601562 384.363281 239.464844 381.414062 L 247.988281 372.632812 C 302.296875 316.6875 329.570312 288.605469 359.195312 288.597656 C 359.210938 288.597656 359.210938 288.597656 359.210938 288.597656 C 388.886719 288.597656 416.222656 316.753906 470.71875 372.839844 C 482.171875 384.640625 494.875 397.714844 509.078125 412.054688 C 511.972656 414.984375 511.9375 419.699219 509.027344 422.59375 C 507.566406 424.023438 505.675781 424.746094 503.78125 424.746094 Z M 503.78125 424.746094 "
     fill-opacity="1"
     fill-rule="nonzero"
     id="path18"
     style="fill:#003399;fill-opacity:1" />
  <path
     fill="#000000"
     d="M 252.839844 616.992188 C 228.160156 616.992188 204.796875 613.183594 183.300781 604.4375 L 131.25 583.238281 L 113.839844 583.238281 C 109.71875 583.238281 106.394531 579.898438 106.394531 575.789062 L 106.394531 421.167969 C 106.394531 418.386719 107.941406 415.84375 110.402344 414.5625 C 147.363281 395.390625 193.445312 393.914062 259.808594 409.75 C 266.105469 411.207031 271.371094 412.675781 276.203125 414.019531 C 298.65625 420.304688 311.015625 423.761719 389.953125 408.199219 C 431.109375 400.082031 461.59375 402.507812 480.535156 415.398438 C 489.488281 421.488281 495.769531 429.804688 499.269531 440.199219 C 503.371094 438.796875 507.742188 437.253906 512.339844 435.632812 C 553.019531 421.289062 608.675781 401.632812 644.585938 420 C 658.675781 427.222656 668.390625 439.632812 673.449219 456.902344 C 674.5625 460.671875 672.558594 464.648438 668.871094 466 C 634.628906 478.507812 594.316406 497.710938 551.652344 518.039062 C 452.972656 565.046875 343.945312 616.992188 252.839844 616.992188 Z M 121.28125 568.339844 L 132.710938 568.339844 C 133.683594 568.339844 134.636719 568.527344 135.527344 568.886719 L 188.929688 590.632812 C 283.566406 629.214844 422.632812 563.011719 545.242188 504.59375 C 585.441406 485.441406 623.5625 467.277344 656.859375 454.582031 C 652.726562 444.703125 646.445312 437.691406 637.792969 433.261719 C 607.609375 417.8125 555.421875 436.238281 517.300781 449.683594 C 509.714844 452.351562 502.71875 454.820312 496.5625 456.78125 C 489.28125 459.683594 397.714844 495.648438 321.175781 502.304688 L 313.972656 520.703125 C 312.476562 524.542969 308.152344 526.453125 304.320312 524.925781 C 300.488281 523.429688 298.609375 519.113281 300.105469 515.28125 L 304.796875 503.265625 C 288.511719 503.765625 273.101562 502.519531 259.96875 498.964844 C 256.007812 497.890625 253.65625 493.796875 254.734375 489.828125 C 255.816406 485.867188 259.871094 483.492188 263.878906 484.585938 C 328.125 502.039062 455.964844 456.234375 485.226562 445.191406 C 482.777344 437.753906 478.46875 432.003906 472.15625 427.714844 C 456.839844 417.296875 429.394531 415.585938 392.847656 422.816406 C 310.394531 439.058594 296.828125 435.25 272.195312 428.375 C 267.550781 427.078125 262.496094 425.664062 256.40625 424.253906 C 196.199219 409.875 154.230469 410.296875 121.28125 425.796875 Z M 121.28125 568.339844 "
     fill-opacity="1"
     fill-rule="nonzero"
     id="path20"
     style="fill:#003399;fill-opacity:1" />
  <path
     fill="#000000"
     d="M 406.125 276.964844 C 401.273438 276.964844 396.488281 276.535156 391.796875 275.652344 C 388.773438 275.082031 386.421875 272.710938 385.847656 269.683594 C 380.488281 240.554688 391.796875 207.882812 415.347656 184.40625 C 439.121094 160.40625 471.5625 149.007812 499.933594 154.667969 C 502.921875 155.273438 505.246094 157.625 505.800781 160.621094 C 511.113281 189.484375 499.820312 222.148438 476.332031 245.867188 C 456.664062 265.730469 430.804688 276.964844 406.125 276.964844 Z M 399.765625 261.761719 C 422.328125 264.042969 447.105469 254.207031 465.742188 235.386719 C 484.445312 216.511719 494.175781 191.328125 491.871094 168.484375 C 469.605469 166.027344 444.753906 175.878906 425.90625 194.921875 C 407.160156 213.59375 397.441406 238.742188 399.765625 261.761719 Z M 399.765625 261.761719 "
     fill-opacity="1"
     fill-rule="nonzero"
     id="path26"
     style="fill:#003399;fill-opacity:1" />
  <path
     fill="#000000"
     d="M 89.058594 611.535156 L 32.714844 611.535156 C 14.953125 611.535156 0.5 597.636719 0.5 580.550781 L 0.5 412.230469 C 0.5 395.144531 14.953125 381.242188 32.714844 381.242188 L 89.058594 381.242188 C 107.125 381.242188 121.28125 394.855469 121.28125 412.230469 L 121.28125 580.550781 C 121.28125 597.636719 106.824219 611.535156 89.058594 611.535156 Z M 32.714844 396.148438 C 23.160156 396.148438 15.382812 403.359375 15.382812 412.230469 L 15.382812 580.550781 C 15.382812 589.273438 23.320312 596.636719 32.714844 596.636719 L 89.058594 596.636719 C 98.617188 596.636719 106.394531 589.421875 106.394531 580.550781 L 106.394531 412.230469 C 106.394531 403.207031 98.777344 396.148438 89.058594 396.148438 Z M 32.714844 396.148438 "
     fill-opacity="1"
     fill-rule="nonzero"
     id="path22"
     style="fill:#003399;fill-opacity:1" />
  <path
     fill="#000000"
     d="M 315.035156 276.964844 C 290.355469 276.964844 264.496094 265.730469 244.824219 245.867188 C 221.335938 222.148438 210.046875 189.484375 215.355469 160.621094 C 215.914062 157.625 218.234375 155.269531 221.226562 154.667969 C 249.582031 149.03125 282.050781 160.398438 305.84375 184.445312 C 329.363281 207.882812 340.671875 240.554688 335.3125 269.683594 C 334.738281 272.710938 332.382812 275.082031 329.363281 275.652344 C 324.671875 276.527344 319.871094 276.964844 315.035156 276.964844 Z M 327.980469 268.332031 L 328.140625 268.332031 Z M 229.289062 168.484375 C 226.984375 191.328125 236.714844 216.511719 255.417969 235.386719 C 274.039062 254.207031 298.832031 264.058594 321.398438 261.761719 C 323.71875 238.742188 314.003906 213.601562 295.285156 194.964844 C 276.40625 175.898438 251.632812 166.019531 229.289062 168.484375 Z M 229.289062 168.484375 "
     fill-opacity="1"
     fill-rule="nonzero"
     id="path28"
     style="fill:#003399;fill-opacity:1" />
</svg>
