<?xml version="1.0" encoding="UTF-8" standalone="no"?>
<svg
   width="900"
   zoomAndPan="magnify"
   viewBox="0 0 675 675.000002"
   height="900"
   preserveAspectRatio="xMidYMid meet"
   version="1.0"
   id="svg20"
   sodipodi:docname="2.svg"
   inkscape:version="1.2.1 (9c6d41e410, 2022-07-14)"
   xmlns:inkscape="http://www.inkscape.org/namespaces/inkscape"
   xmlns:sodipodi="http://sodipodi.sourceforge.net/DTD/sodipodi-0.dtd"
   xmlns="http://www.w3.org/2000/svg"
   xmlns:svg="http://www.w3.org/2000/svg">
  <sodipodi:namedview
     id="namedview22"
     pagecolor="#ffffff"
     bordercolor="#000000"
     borderopacity="0.25"
     inkscape:showpageshadow="2"
     inkscape:pageopacity="0.0"
     inkscape:pagecheckerboard="0"
     inkscape:deskcolor="#d1d1d1"
     showgrid="false"
     inkscape:zoom="0.98888889"
     inkscape:cx="435.33708"
     inkscape:cy="450.50562"
     inkscape:window-width="1920"
     inkscape:window-height="1051"
     inkscape:window-x="-9"
     inkscape:window-y="-9"
     inkscape:window-maximized="1"
     inkscape:current-layer="svg20" />
  <defs
     id="defs8">
    <clipPath
       id="7d347f7900">
      <path
         d="M 0.5 0 L 674.5 0 L 674.5 674 L 0.5 674 Z M 0.5 0 "
         clip-rule="nonzero"
         id="path2" />
    </clipPath>
    <clipPath
       id="803a4976a6">
      <path
         d="M 6 47.179688 L 669.136719 47.179688 L 669.136719 617 L 6 617 Z M 6 47.179688 "
         clip-rule="nonzero"
         id="path5" />
    </clipPath>
  </defs>
  <path
     fill="#000000"
     d="M 338.457031 47.179688 C 334.886719 47.078125 331.421875 48.421875 328.835938 50.902344 C 326.25 53.386719 324.800781 56.851562 324.800781 60.421875 L 324.800781 160.085938 C 324.59375 161.480469 324.59375 162.929688 324.800781 164.324219 L 324.800781 280.023438 L 205.644531 399.183594 L 148.808594 342.34375 C 146.273438 339.808594 142.808594 338.414062 139.238281 338.464844 C 135.773438 338.515625 132.515625 339.914062 130.085938 342.34375 L 10.929688 461.507812 C 7.464844 464.816406 6.066406 469.78125 7.308594 474.386719 C 8.5 479.039062 12.117188 482.660156 16.773438 483.851562 C 21.375 485.089844 26.339844 483.695312 29.652344 480.230469 L 139.445312 370.429688 L 186.921875 417.90625 L 10.929688 593.910156 C 7.464844 597.21875 6.066406 602.183594 7.308594 606.789062 C 8.5 611.441406 12.117188 615.0625 16.773438 616.253906 C 21.375 617.492188 26.339844 616.097656 29.652344 612.632812 L 173.683594 468.59375 L 173.21875 469.472656 L 233.519531 499.625 L 285.082031 460.9375 L 338.042969 500.660156 L 391 460.9375 L 442.5625 499.625 L 502.863281 469.472656 L 502.398438 468.59375 L 646.433594 612.632812 C 649.742188 616.097656 654.707031 617.492188 659.308594 616.253906 C 663.964844 615.0625 667.585938 611.441406 668.773438 606.789062 C 670.015625 602.183594 668.617188 597.21875 665.152344 593.910156 L 489.160156 417.90625 L 536.636719 370.429688 L 646.433594 480.230469 C 649.742188 483.695312 654.707031 485.089844 659.308594 483.851562 C 663.964844 482.660156 667.585938 479.039062 668.773438 474.386719 C 670.015625 469.78125 668.617188 464.816406 665.152344 461.507812 L 545.996094 342.34375 C 543.460938 339.808594 539.996094 338.414062 536.429688 338.464844 C 532.964844 338.515625 529.707031 339.914062 527.273438 342.34375 L 470.4375 399.183594 L 351.28125 280.023438 L 351.28125 171.152344 L 462.058594 127.5 C 467.023438 125.535156 470.28125 120.828125 470.4375 115.554688 C 470.59375 110.226562 467.542969 105.363281 462.730469 103.140625 L 343.574219 48.421875 C 341.972656 47.644531 340.214844 47.230469 338.457031 47.179688 Z M 351.28125 81.109375 L 423.476562 114.207031 L 351.28125 142.707031 Z M 338.042969 304.226562 L 459.214844 425.355469 C 460.199219 426.90625 461.492188 428.199219 462.992188 429.234375 L 483.417969 449.558594 L 445.355469 468.59375 L 391 427.835938 L 338.042969 467.558594 L 285.082031 427.835938 L 230.726562 468.59375 L 192.664062 449.558594 L 213.09375 429.128906 C 214.644531 428.148438 215.9375 426.855469 216.972656 425.355469 Z M 338.042969 304.226562 "
     fill-opacity="1"
     fill-rule="nonzero"
     id="path16"
     style="fill:#ffffff;fill-opacity:1" />
</svg>
