<?xml version="1.0" encoding="UTF-8" standalone="no"?>
<svg
   width="900"
   zoomAndPan="magnify"
   viewBox="0 0 675 675.000002"
   height="900"
   preserveAspectRatio="xMidYMid meet"
   version="1.0"
   id="svg35"
   sodipodi:docname="1.svg"
   inkscape:version="1.2.1 (9c6d41e410, 2022-07-14)"
   xmlns:inkscape="http://www.inkscape.org/namespaces/inkscape"
   xmlns:sodipodi="http://sodipodi.sourceforge.net/DTD/sodipodi-0.dtd"
   xmlns="http://www.w3.org/2000/svg"
   xmlns:svg="http://www.w3.org/2000/svg">
  <sodipodi:namedview
     id="namedview37"
     pagecolor="#ffffff"
     bordercolor="#000000"
     borderopacity="0.25"
     inkscape:showpageshadow="2"
     inkscape:pageopacity="0.0"
     inkscape:pagecheckerboard="0"
     inkscape:deskcolor="#d1d1d1"
     showgrid="false"
     inkscape:zoom="0.49444444"
     inkscape:cx="-1.011236"
     inkscape:cy="708.8764"
     inkscape:window-width="1920"
     inkscape:window-height="1051"
     inkscape:window-x="-9"
     inkscape:window-y="-9"
     inkscape:window-maximized="1"
     inkscape:current-layer="svg35" />
  <defs
     id="defs5">
    <clipPath
       id="f616844764">
      <path
         d="M 0.5 0 L 674.5 0 L 674.5 674 L 0.5 674 Z M 0.5 0 "
         clip-rule="nonzero"
         id="path2" />
    </clipPath>
  </defs>
  <path
     fill="#000000"
     d="M 479.703125 90.097656 L 523.335938 239.121094 C 523.492188 239.613281 523.625 240.113281 523.730469 240.617188 C 523.835938 241.125 523.914062 241.632812 523.972656 242.148438 C 524.027344 242.660156 524.054688 243.175781 524.058594 243.691406 C 524.0625 244.210938 524.042969 244.722656 523.996094 245.238281 C 523.949219 245.753906 523.875 246.265625 523.777344 246.769531 C 523.679688 247.277344 523.558594 247.777344 523.410156 248.273438 C 523.261719 248.769531 523.089844 249.253906 522.894531 249.734375 C 522.699219 250.210938 522.476562 250.675781 522.234375 251.132812 C 521.992188 251.589844 521.730469 252.03125 521.441406 252.460938 C 521.15625 252.890625 520.847656 253.304688 520.523438 253.707031 C 520.195312 254.105469 519.847656 254.488281 519.480469 254.851562 C 519.117188 255.214844 518.734375 255.5625 518.332031 255.890625 C 517.933594 256.214844 517.519531 256.519531 517.089844 256.808594 C 516.65625 257.09375 516.214844 257.355469 515.757812 257.597656 C 515.300781 257.839844 514.835938 258.054688 514.355469 258.25 C 513.878906 258.445312 513.390625 258.617188 512.894531 258.761719 L 450.949219 276.691406 C 450.457031 276.839844 449.953125 276.96875 449.445312 277.070312 C 448.9375 277.171875 448.429688 277.246094 447.914062 277.296875 C 447.398438 277.347656 446.882812 277.371094 446.363281 277.371094 C 445.847656 277.371094 445.328125 277.34375 444.816406 277.292969 C 444.300781 277.238281 443.789062 277.160156 443.28125 277.058594 C 442.773438 276.953125 442.273438 276.828125 441.777344 276.671875 C 441.285156 276.519531 440.800781 276.34375 440.324219 276.140625 C 439.847656 275.9375 439.378906 275.714844 438.925781 275.464844 C 438.472656 275.21875 438.03125 274.949219 437.601562 274.65625 C 437.175781 274.363281 436.765625 274.050781 436.367188 273.71875 C 435.972656 273.386719 435.59375 273.035156 435.230469 272.664062 C 434.871094 272.292969 434.527344 271.902344 434.207031 271.5 C 433.882812 271.09375 433.582031 270.675781 433.300781 270.238281 C 433.019531 269.804688 432.761719 269.355469 432.523438 268.894531 C 432.289062 268.433594 432.078125 267.964844 431.886719 267.480469 C 431.699219 267 431.53125 266.511719 431.394531 266.011719 L 387.757812 117.222656 C 387.605469 116.730469 387.476562 116.234375 387.375 115.730469 C 387.269531 115.226562 387.191406 114.71875 387.140625 114.207031 C 387.085938 113.695312 387.058594 113.179688 387.058594 112.667969 C 387.054688 112.152344 387.078125 111.636719 387.128906 111.125 C 387.175781 110.613281 387.25 110.105469 387.347656 109.601562 C 387.449219 109.097656 387.570312 108.597656 387.71875 108.105469 C 387.867188 107.613281 388.039062 107.128906 388.234375 106.652344 C 388.433594 106.175781 388.652344 105.710938 388.894531 105.257812 C 389.136719 104.804688 389.398438 104.363281 389.6875 103.9375 C 389.972656 103.507812 390.277344 103.097656 390.605469 102.699219 C 390.929688 102.300781 391.277344 101.921875 391.640625 101.558594 C 392.003906 101.195312 392.386719 100.851562 392.785156 100.527344 C 393.183594 100.199219 393.597656 99.894531 394.023438 99.609375 C 394.453125 99.328125 394.894531 99.0625 395.351562 98.824219 C 395.804688 98.582031 396.269531 98.363281 396.746094 98.171875 C 397.222656 97.976562 397.707031 97.804688 398.199219 97.660156 L 460.535156 79.652344 C 461.515625 79.359375 462.511719 79.164062 463.53125 79.066406 C 464.550781 78.96875 465.566406 78.972656 466.585938 79.078125 C 467.601562 79.179688 468.601562 79.382812 469.578125 79.679688 C 470.558594 79.980469 471.496094 80.375 472.398438 80.859375 C 473.296875 81.34375 474.144531 81.910156 474.929688 82.5625 C 475.71875 83.214844 476.4375 83.9375 477.085938 84.726562 C 477.730469 85.519531 478.296875 86.371094 478.773438 87.273438 C 479.253906 88.175781 479.640625 89.117188 479.9375 90.097656 Z M 489.054688 232.964844 L 454.066406 113.871094 L 421.964844 123.222656 L 456.949219 242.238281 Z M 489.054688 232.964844 "
     fill-opacity="1"
     fill-rule="nonzero"
     id="path13"
     style="fill:#ffffff;fill-opacity:1" />
  <path
     fill="#000000"
     d="M 264.957031 269.128906 C 265.941406 268.84375 266.945312 268.65625 267.96875 268.570312 C 268.988281 268.480469 270.007812 268.496094 271.027344 268.609375 C 272.046875 268.722656 273.046875 268.933594 274.023438 269.246094 C 275 269.554688 275.9375 269.960938 276.835938 270.457031 C 277.734375 270.953125 278.574219 271.53125 279.355469 272.191406 C 280.140625 272.855469 280.851562 273.585938 281.488281 274.390625 C 282.128906 275.191406 282.683594 276.046875 283.152344 276.960938 C 283.621094 277.871094 284 278.820312 284.28125 279.808594 C 284.570312 280.785156 284.757812 281.78125 284.851562 282.796875 C 284.945312 283.8125 284.9375 284.824219 284.832031 285.839844 C 284.726562 286.851562 284.523438 287.847656 284.222656 288.820312 C 283.921875 289.792969 283.527344 290.726562 283.042969 291.625 C 282.558594 292.519531 281.992188 293.363281 281.34375 294.148438 C 280.695312 294.933594 279.976562 295.648438 279.183594 296.292969 C 278.394531 296.9375 277.550781 297.5 276.652344 297.976562 C 275.753906 298.457031 274.816406 298.84375 273.839844 299.136719 L 162.882812 331.792969 C 162.390625 331.941406 161.890625 332.0625 161.386719 332.15625 C 160.882812 332.253906 160.375 332.324219 159.863281 332.371094 C 159.351562 332.417969 158.839844 332.4375 158.328125 332.433594 C 157.8125 332.425781 157.300781 332.398438 156.789062 332.34375 C 156.28125 332.285156 155.773438 332.207031 155.269531 332.101562 C 154.769531 331.996094 154.273438 331.867188 153.78125 331.710938 C 153.292969 331.558594 152.8125 331.378906 152.339844 331.175781 C 151.867188 330.972656 151.40625 330.75 150.957031 330.503906 C 150.507812 330.253906 150.070312 329.984375 149.644531 329.695312 C 149.222656 329.402344 148.816406 329.09375 148.421875 328.761719 C 148.03125 328.429688 147.65625 328.082031 147.296875 327.710938 C 146.9375 327.34375 146.597656 326.960938 146.28125 326.558594 C 145.960938 326.15625 145.660156 325.738281 145.382812 325.308594 C 145.101562 324.875 144.84375 324.433594 144.609375 323.976562 C 144.375 323.519531 144.164062 323.050781 143.976562 322.574219 C 143.785156 322.097656 143.621094 321.609375 143.480469 321.117188 L 115.429688 225.792969 C 115.28125 225.300781 115.15625 224.800781 115.058594 224.292969 C 114.960938 223.789062 114.886719 223.277344 114.839844 222.765625 C 114.789062 222.25 114.769531 221.738281 114.769531 221.222656 C 114.773438 220.707031 114.800781 220.191406 114.855469 219.679688 C 114.910156 219.164062 114.988281 218.65625 115.09375 218.152344 C 115.195312 217.644531 115.328125 217.148438 115.480469 216.65625 C 115.632812 216.164062 115.8125 215.679688 116.011719 215.207031 C 116.214844 214.730469 116.441406 214.265625 116.6875 213.816406 C 116.9375 213.363281 117.207031 212.925781 117.496094 212.5 C 117.789062 212.074219 118.097656 211.664062 118.429688 211.269531 C 118.761719 210.875 119.113281 210.496094 119.484375 210.136719 C 119.851562 209.777344 120.238281 209.4375 120.640625 209.117188 C 121.046875 208.792969 121.464844 208.492188 121.898438 208.214844 C 122.328125 207.933594 122.777344 207.675781 123.234375 207.441406 C 123.691406 207.203125 124.160156 206.992188 124.640625 206.804688 C 125.121094 206.613281 125.609375 206.449219 126.105469 206.308594 L 406.148438 124.546875 C 407.125 124.253906 408.125 124.058594 409.144531 123.960938 C 410.164062 123.863281 411.179688 123.867188 412.199219 123.96875 C 413.214844 124.074219 414.214844 124.277344 415.191406 124.574219 C 416.167969 124.875 417.109375 125.265625 418.007812 125.753906 C 418.910156 126.238281 419.753906 126.804688 420.542969 127.457031 C 421.332031 128.109375 422.050781 128.828125 422.699219 129.621094 C 423.34375 130.414062 423.90625 131.261719 424.386719 132.167969 C 424.867188 133.070312 425.253906 134.011719 425.546875 134.992188 L 453.601562 230.46875 C 453.886719 231.457031 454.070312 232.460938 454.160156 233.480469 C 454.246094 234.503906 454.234375 235.523438 454.121094 236.542969 C 454.007812 237.5625 453.792969 238.5625 453.484375 239.539062 C 453.171875 240.515625 452.769531 241.453125 452.273438 242.351562 C 451.777344 243.25 451.199219 244.089844 450.539062 244.875 C 449.875 245.65625 449.144531 246.371094 448.339844 247.007812 C 447.539062 247.648438 446.683594 248.203125 445.769531 248.671875 C 444.859375 249.140625 443.910156 249.515625 442.925781 249.800781 L 357.214844 274.898438 C 356.230469 275.191406 355.230469 275.382812 354.207031 275.480469 C 353.1875 275.574219 352.167969 275.570312 351.148438 275.464844 C 350.128906 275.355469 349.128906 275.152344 348.148438 274.847656 C 347.167969 274.546875 346.230469 274.152344 345.328125 273.664062 C 344.425781 273.175781 343.582031 272.601562 342.792969 271.949219 C 342.003906 271.292969 341.285156 270.566406 340.640625 269.769531 C 339.992188 268.972656 339.433594 268.121094 338.953125 267.214844 C 338.476562 266.308594 338.089844 265.363281 337.800781 264.378906 C 337.507812 263.394531 337.3125 262.394531 337.21875 261.371094 C 337.125 260.351562 337.132812 259.332031 337.238281 258.3125 C 337.34375 257.289062 337.550781 256.289062 337.855469 255.3125 C 338.15625 254.332031 338.554688 253.390625 339.042969 252.488281 C 339.53125 251.589844 340.105469 250.742188 340.761719 249.957031 C 341.414062 249.167969 342.140625 248.449219 342.9375 247.804688 C 343.734375 247.160156 344.585938 246.597656 345.496094 246.121094 C 346.402344 245.644531 347.347656 245.257812 348.332031 244.96875 L 418.925781 224.3125 L 400.226562 158.765625 L 149.949219 231.796875 L 169.117188 297.734375 Z M 264.957031 269.128906 "
     fill-opacity="1"
     fill-rule="nonzero"
     id="path15"
     style="fill:#ffffff;fill-opacity:1" />
  <path
     fill="#000000"
     d="M 46.859375 285.109375 L 53.71875 308.023438 L 132.804688 284.640625 L 126.105469 261.257812 Z M 27.847656 331.871094 L 12.265625 278.792969 C 12.121094 278.300781 12.003906 277.804688 11.914062 277.300781 C 11.820312 276.792969 11.75 276.285156 11.707031 275.777344 C 11.664062 275.265625 11.648438 274.753906 11.65625 274.242188 C 11.664062 273.726562 11.695312 273.214844 11.753906 272.707031 C 11.8125 272.199219 11.894531 271.691406 12.003906 271.191406 C 12.109375 270.691406 12.242188 270.195312 12.398438 269.707031 C 12.554688 269.21875 12.734375 268.738281 12.941406 268.269531 C 13.144531 267.796875 13.371094 267.339844 13.621094 266.890625 C 13.871094 266.441406 14.140625 266.007812 14.433594 265.585938 C 14.722656 265.164062 15.035156 264.757812 15.367188 264.367188 C 15.699219 263.980469 16.050781 263.605469 16.421875 263.25 C 16.789062 262.894531 17.175781 262.558594 17.578125 262.238281 C 17.980469 261.921875 18.394531 261.625 18.828125 261.347656 C 19.257812 261.070312 19.703125 260.816406 20.160156 260.582031 C 20.617188 260.351562 21.085938 260.140625 21.5625 259.953125 C 22.039062 259.765625 22.523438 259.605469 23.019531 259.464844 L 132.105469 227.429688 C 133.085938 227.136719 134.082031 226.941406 135.101562 226.84375 C 136.121094 226.746094 137.136719 226.75 138.15625 226.851562 C 139.171875 226.957031 140.171875 227.15625 141.148438 227.457031 C 142.128906 227.757812 143.066406 228.148438 143.96875 228.636719 C 144.867188 229.121094 145.714844 229.6875 146.5 230.339844 C 147.289062 230.992188 148.007812 231.710938 148.65625 232.503906 C 149.300781 233.296875 149.867188 234.144531 150.34375 235.050781 C 150.824219 235.953125 151.210938 236.894531 151.507812 237.875 L 167.089844 290.953125 C 167.375 291.9375 167.5625 292.941406 167.652344 293.964844 C 167.738281 294.984375 167.726562 296.007812 167.613281 297.027344 C 167.496094 298.046875 167.285156 299.042969 166.976562 300.023438 C 166.664062 301 166.261719 301.9375 165.765625 302.835938 C 165.269531 303.734375 164.691406 304.574219 164.027344 305.355469 C 163.367188 306.140625 162.632812 306.851562 161.832031 307.492188 C 161.03125 308.128906 160.171875 308.683594 159.261719 309.152344 C 158.351562 309.625 157.402344 310 156.414062 310.28125 L 47.328125 342.316406 C 46.835938 342.472656 46.335938 342.601562 45.832031 342.707031 C 45.328125 342.816406 44.816406 342.894531 44.304688 342.949219 C 43.789062 343.003906 43.277344 343.035156 42.757812 343.039062 C 42.242188 343.042969 41.726562 343.023438 41.214844 342.972656 C 40.699219 342.925781 40.1875 342.855469 39.683594 342.757812 C 39.175781 342.660156 38.675781 342.535156 38.179688 342.386719 C 37.683594 342.242188 37.199219 342.070312 36.722656 341.871094 C 36.242188 341.675781 35.777344 341.457031 35.320312 341.214844 C 34.863281 340.972656 34.421875 340.707031 33.992188 340.421875 C 33.5625 340.136719 33.148438 339.828125 32.75 339.5 C 32.351562 339.171875 31.96875 338.824219 31.605469 338.460938 C 31.238281 338.09375 30.894531 337.710938 30.566406 337.3125 C 30.238281 336.910156 29.933594 336.496094 29.648438 336.066406 C 29.363281 335.636719 29.101562 335.191406 28.859375 334.734375 C 28.617188 334.277344 28.398438 333.8125 28.203125 333.332031 C 28.011719 332.855469 27.839844 332.367188 27.691406 331.871094 Z M 27.847656 331.871094 "
     fill-opacity="1"
     fill-rule="nonzero"
     id="path17"
     style="fill:#ffffff;fill-opacity:1" />
  <path
     fill="#000000"
     d="M 2.835938 245.589844 C 2.554688 244.601562 2.367188 243.597656 2.28125 242.574219 C 2.195312 241.550781 2.210938 240.527344 2.328125 239.503906 C 2.441406 238.484375 2.65625 237.484375 2.96875 236.503906 C 3.28125 235.527344 3.6875 234.585938 4.183594 233.6875 C 4.679688 232.789062 5.261719 231.945312 5.925781 231.160156 C 6.589844 230.375 7.320312 229.664062 8.125 229.023438 C 8.929688 228.382812 9.785156 227.828125 10.699219 227.355469 C 11.613281 226.882812 12.5625 226.507812 13.550781 226.222656 C 14.539062 225.9375 15.542969 225.753906 16.566406 225.667969 C 17.589844 225.582031 18.613281 225.597656 19.636719 225.710938 C 20.65625 225.828125 21.65625 226.042969 22.632812 226.355469 C 23.613281 226.667969 24.550781 227.074219 25.449219 227.570312 C 26.351562 228.066406 27.191406 228.648438 27.976562 229.3125 C 28.761719 229.976562 29.472656 230.707031 30.113281 231.511719 C 30.753906 232.316406 31.308594 233.175781 31.78125 234.089844 C 32.253906 235 32.628906 235.953125 32.914062 236.941406 L 68.054688 356.425781 C 68.335938 357.40625 68.515625 358.40625 68.601562 359.425781 C 68.683594 360.445312 68.667969 361.460938 68.550781 362.476562 C 68.433594 363.492188 68.21875 364.484375 67.90625 365.457031 C 67.59375 366.429688 67.191406 367.363281 66.695312 368.257812 C 66.199219 369.148438 65.621094 369.988281 64.964844 370.765625 C 64.304688 371.546875 63.574219 372.253906 62.773438 372.890625 C 61.976562 373.527344 61.121094 374.078125 60.214844 374.546875 C 59.304688 375.015625 58.363281 375.394531 57.378906 375.675781 C 56.886719 375.832031 56.382812 375.960938 55.875 376.066406 C 55.367188 376.167969 54.855469 376.25 54.339844 376.300781 C 53.824219 376.355469 53.308594 376.382812 52.789062 376.386719 C 52.269531 376.386719 51.753906 376.363281 51.238281 376.3125 C 50.722656 376.265625 50.207031 376.1875 49.699219 376.089844 C 49.191406 375.988281 48.6875 375.859375 48.191406 375.710938 C 47.695312 375.558594 47.210938 375.382812 46.730469 375.183594 C 46.253906 374.984375 45.785156 374.761719 45.328125 374.515625 C 44.871094 374.269531 44.429688 374 44 373.710938 C 43.570312 373.417969 43.15625 373.109375 42.757812 372.777344 C 42.359375 372.445312 41.980469 372.09375 41.613281 371.722656 C 41.25 371.355469 40.90625 370.964844 40.582031 370.5625 C 40.257812 370.15625 39.953125 369.738281 39.671875 369.304688 C 39.386719 368.867188 39.128906 368.421875 38.890625 367.960938 C 38.652344 367.5 38.4375 367.027344 38.246094 366.546875 C 38.054688 366.066406 37.886719 365.574219 37.746094 365.074219 Z M 2.835938 245.589844 "
     fill-opacity="1"
     fill-rule="nonzero"
     id="path19"
     style="fill:#ffffff;fill-opacity:1" />
  <path
     fill="#000000"
     d="M 222.804688 194.304688 C 223.089844 195.285156 223.28125 196.28125 223.375 197.292969 C 223.464844 198.308594 223.460938 199.324219 223.355469 200.335938 C 223.246094 201.351562 223.042969 202.34375 222.742188 203.316406 C 222.441406 204.292969 222.050781 205.226562 221.566406 206.125 C 221.082031 207.019531 220.515625 207.859375 219.863281 208.644531 C 219.214844 209.429688 218.496094 210.144531 217.707031 210.789062 C 216.917969 211.433594 216.074219 211.996094 215.171875 212.476562 C 214.273438 212.953125 213.335938 213.339844 212.363281 213.636719 C 211.871094 213.789062 211.371094 213.921875 210.863281 214.027344 C 210.359375 214.132812 209.851562 214.214844 209.335938 214.269531 C 208.824219 214.324219 208.308594 214.355469 207.792969 214.359375 C 207.277344 214.363281 206.761719 214.339844 206.246094 214.292969 C 205.734375 214.246094 205.222656 214.171875 204.714844 214.074219 C 204.207031 213.976562 203.707031 213.855469 203.210938 213.707031 C 202.71875 213.558594 202.230469 213.386719 201.753906 213.191406 C 201.277344 212.996094 200.808594 212.777344 200.351562 212.535156 C 199.898438 212.292969 199.453125 212.027344 199.023438 211.738281 C 198.59375 211.453125 198.179688 211.144531 197.78125 210.820312 C 197.382812 210.492188 197 210.144531 196.636719 209.777344 C 196.273438 209.414062 195.925781 209.03125 195.601562 208.628906 C 195.273438 208.230469 194.96875 207.816406 194.683594 207.382812 C 194.398438 206.953125 194.132812 206.511719 193.890625 206.054688 C 193.652344 205.597656 193.433594 205.128906 193.238281 204.652344 C 193.042969 204.171875 192.871094 203.6875 192.726562 203.191406 L 178.933594 155.648438 C 178.648438 154.660156 178.464844 153.652344 178.375 152.628906 C 178.289062 151.601562 178.304688 150.578125 178.417969 149.558594 C 178.535156 148.535156 178.746094 147.535156 179.058594 146.554688 C 179.371094 145.574219 179.777344 144.636719 180.273438 143.734375 C 180.773438 142.835938 181.351562 141.992188 182.015625 141.207031 C 182.679688 140.421875 183.414062 139.710938 184.214844 139.066406 C 185.019531 138.425781 185.878906 137.871094 186.792969 137.398438 C 187.707031 136.925781 188.65625 136.550781 189.644531 136.265625 C 190.632812 135.980469 191.640625 135.796875 192.664062 135.710938 C 193.6875 135.625 194.710938 135.640625 195.730469 135.753906 C 196.753906 135.871094 197.753906 136.085938 198.734375 136.398438 C 199.710938 136.710938 200.652344 137.117188 201.550781 137.617188 C 202.449219 138.113281 203.292969 138.695312 204.078125 139.359375 C 204.863281 140.023438 205.574219 140.757812 206.214844 141.5625 C 206.855469 142.367188 207.410156 143.226562 207.878906 144.140625 C 208.351562 145.054688 208.726562 146.007812 209.011719 146.996094 Z M 222.804688 194.304688 "
     fill-opacity="1"
     fill-rule="nonzero"
     id="path21"
     style="fill:#ffffff;fill-opacity:1" />
  <path
     fill="#000000"
     d="M 165.375 176.066406 C 164.882812 176.210938 164.378906 176.332031 163.875 176.425781 C 163.367188 176.523438 162.855469 176.59375 162.34375 176.636719 C 161.828125 176.679688 161.3125 176.699219 160.796875 176.691406 C 160.28125 176.6875 159.769531 176.652344 159.253906 176.597656 C 158.742188 176.539062 158.234375 176.457031 157.730469 176.347656 C 157.226562 176.238281 156.726562 176.105469 156.238281 175.949219 C 155.746094 175.789062 155.265625 175.609375 154.792969 175.402344 C 154.316406 175.195312 153.855469 174.96875 153.40625 174.71875 C 152.957031 174.464844 152.519531 174.191406 152.09375 173.898438 C 151.671875 173.601562 151.265625 173.289062 150.871094 172.953125 C 150.480469 172.617188 150.105469 172.261719 149.75 171.890625 C 149.394531 171.519531 149.054688 171.128906 148.738281 170.722656 C 148.417969 170.316406 148.121094 169.894531 147.84375 169.460938 C 147.570312 169.023438 147.316406 168.578125 147.082031 168.117188 C 146.851562 167.65625 146.640625 167.183594 146.457031 166.703125 C 146.273438 166.21875 146.109375 165.730469 145.972656 165.234375 C 145.6875 164.257812 145.496094 163.261719 145.402344 162.246094 C 145.3125 161.230469 145.316406 160.214844 145.421875 159.203125 C 145.53125 158.1875 145.734375 157.195312 146.035156 156.222656 C 146.335938 155.246094 146.726562 154.3125 147.210938 153.417969 C 147.695312 152.519531 148.261719 151.679688 148.914062 150.894531 C 149.5625 150.109375 150.28125 149.394531 151.070312 148.75 C 151.859375 148.105469 152.703125 147.542969 153.605469 147.0625 C 154.503906 146.585938 155.441406 146.199219 156.414062 145.902344 L 222.335938 126.574219 C 223.320312 126.277344 224.324219 126.082031 225.347656 125.984375 C 226.371094 125.886719 227.394531 125.890625 228.417969 125.996094 C 229.441406 126.101562 230.445312 126.304688 231.429688 126.605469 C 232.414062 126.910156 233.355469 127.304688 234.261719 127.792969 C 235.167969 128.28125 236.015625 128.851562 236.808594 129.507812 C 237.601562 130.164062 238.320312 130.890625 238.972656 131.6875 C 239.621094 132.488281 240.183594 133.339844 240.667969 134.25 C 241.148438 135.160156 241.535156 136.105469 241.828125 137.09375 C 242.125 138.078125 242.320312 139.082031 242.414062 140.109375 C 242.511719 141.132812 242.507812 142.15625 242.402344 143.179688 C 242.296875 144.203125 242.09375 145.207031 241.789062 146.1875 C 241.484375 147.171875 241.089844 148.117188 240.601562 149.019531 C 240.113281 149.925781 239.539062 150.773438 238.882812 151.566406 C 238.226562 152.359375 237.5 153.078125 236.699219 153.726562 C 235.902344 154.375 235.046875 154.941406 234.140625 155.421875 C 233.230469 155.902344 232.28125 156.289062 231.296875 156.582031 Z M 165.375 176.066406 "
     fill-opacity="1"
     fill-rule="nonzero"
     id="path23"
     style="fill:#ffffff;fill-opacity:1" />
  <path
     fill="#000000"
     d="M 612.867188 20.339844 L 672.941406 226.027344 C 673.09375 226.519531 673.222656 227.015625 673.324219 227.519531 C 673.429688 228.023438 673.507812 228.53125 673.558594 229.042969 C 673.613281 229.554688 673.640625 230.070312 673.644531 230.582031 C 673.644531 231.097656 673.621094 231.609375 673.574219 232.125 C 673.523438 232.636719 673.449219 233.144531 673.351562 233.648438 C 673.253906 234.152344 673.128906 234.652344 672.980469 235.144531 C 672.832031 235.636719 672.660156 236.121094 672.464844 236.597656 C 672.269531 237.074219 672.046875 237.535156 671.804688 237.992188 C 671.5625 238.445312 671.300781 238.886719 671.015625 239.3125 C 670.730469 239.742188 670.421875 240.152344 670.097656 240.550781 C 669.769531 240.949219 669.421875 241.328125 669.058594 241.691406 C 668.695312 242.054688 668.3125 242.398438 667.914062 242.722656 C 667.515625 243.050781 667.105469 243.355469 666.675781 243.636719 C 666.246094 243.921875 665.804688 244.1875 665.351562 244.425781 C 664.894531 244.667969 664.429688 244.882812 663.953125 245.078125 C 663.480469 245.273438 662.992188 245.445312 662.5 245.589844 L 598.296875 264.296875 C 596.433594 264.8125 594.542969 264.945312 592.625 264.703125 C 590.707031 264.460938 588.90625 263.855469 587.230469 262.894531 L 556.0625 245.824219 L 512.894531 258.761719 C 512.402344 258.917969 511.898438 259.046875 511.390625 259.152344 C 510.882812 259.257812 510.371094 259.335938 509.855469 259.390625 C 509.339844 259.445312 508.824219 259.472656 508.304688 259.472656 C 507.785156 259.476562 507.269531 259.453125 506.753906 259.402344 C 506.238281 259.351562 505.722656 259.277344 505.214844 259.175781 C 504.707031 259.074219 504.203125 258.949219 503.707031 258.796875 C 503.210938 258.648438 502.726562 258.472656 502.246094 258.273438 C 501.769531 258.074219 501.300781 257.847656 500.84375 257.601562 C 500.386719 257.355469 499.945312 257.089844 499.515625 256.796875 C 499.085938 256.507812 498.671875 256.195312 498.273438 255.863281 C 497.875 255.53125 497.496094 255.179688 497.132812 254.8125 C 496.769531 254.441406 496.421875 254.054688 496.097656 253.648438 C 495.773438 253.246094 495.46875 252.828125 495.1875 252.390625 C 494.902344 251.957031 494.644531 251.507812 494.40625 251.046875 C 494.167969 250.589844 493.953125 250.117188 493.761719 249.632812 C 493.570312 249.152344 493.402344 248.660156 493.261719 248.164062 L 449.625 99.296875 C 449.464844 98.796875 449.332031 98.289062 449.222656 97.777344 C 449.113281 97.265625 449.027344 96.75 448.96875 96.230469 C 448.914062 95.707031 448.882812 95.1875 448.878906 94.660156 C 448.871094 94.136719 448.894531 93.617188 448.941406 93.09375 C 448.992188 92.570312 449.0625 92.054688 449.164062 91.539062 C 449.265625 91.027344 449.390625 90.515625 449.542969 90.015625 C 449.691406 89.515625 449.871094 89.023438 450.070312 88.539062 C 450.269531 88.054688 450.496094 87.582031 450.746094 87.121094 C 450.992188 86.660156 451.265625 86.210938 451.558594 85.777344 C 451.851562 85.34375 452.167969 84.925781 452.503906 84.523438 C 452.839844 84.121094 453.195312 83.738281 453.566406 83.371094 C 453.941406 83.007812 454.335938 82.660156 454.746094 82.332031 C 455.152344 82.007812 455.578125 81.703125 456.019531 81.417969 C 456.460938 81.132812 456.914062 80.871094 457.378906 80.632812 C 457.847656 80.398438 458.324219 80.183594 458.8125 79.992188 C 459.300781 79.804688 459.796875 79.636719 460.300781 79.5 L 503.078125 66.792969 L 519.988281 35.617188 C 520.492188 34.664062 521.085938 33.769531 521.777344 32.941406 C 522.464844 32.109375 523.234375 31.359375 524.078125 30.6875 C 524.921875 30.019531 525.828125 29.441406 526.792969 28.957031 C 527.757812 28.476562 528.761719 28.097656 529.804688 27.824219 L 593.308594 9.351562 C 593.804688 9.199219 594.304688 9.074219 594.8125 8.972656 C 595.320312 8.871094 595.832031 8.792969 596.347656 8.742188 C 596.863281 8.691406 597.378906 8.667969 597.894531 8.667969 C 598.414062 8.671875 598.929688 8.695312 599.445312 8.75 C 599.960938 8.800781 600.46875 8.878906 600.976562 8.984375 C 601.484375 9.085938 601.984375 9.214844 602.480469 9.367188 C 602.972656 9.519531 603.460938 9.699219 603.9375 9.898438 C 604.414062 10.101562 604.878906 10.328125 605.332031 10.574219 C 605.789062 10.824219 606.226562 11.09375 606.65625 11.382812 C 607.082031 11.675781 607.496094 11.988281 607.890625 12.320312 C 608.289062 12.65625 608.667969 13.007812 609.027344 13.378906 C 609.390625 13.75 609.730469 14.136719 610.054688 14.542969 C 610.375 14.945312 610.679688 15.367188 610.957031 15.800781 C 611.238281 16.234375 611.496094 16.683594 611.734375 17.144531 C 611.96875 17.605469 612.183594 18.078125 612.371094 18.558594 C 612.5625 19.039062 612.726562 19.53125 612.867188 20.027344 Z M 638.96875 219.792969 L 587.230469 44.113281 L 544.453125 56.582031 L 527.46875 87.761719 C 527.003906 88.699219 526.445312 89.582031 525.796875 90.402344 C 525.148438 91.226562 524.421875 91.972656 523.617188 92.644531 C 522.808594 93.316406 521.945312 93.898438 521.019531 94.386719 C 520.089844 94.878906 519.125 95.265625 518.117188 95.554688 L 484.144531 105.21875 L 519.128906 224.078125 L 552.710938 214.257812 C 553.742188 213.914062 554.792969 213.679688 555.871094 213.554688 C 556.949219 213.429688 558.027344 213.417969 559.109375 213.519531 C 560.1875 213.621094 561.246094 213.832031 562.28125 214.152344 C 563.320312 214.472656 564.3125 214.898438 565.257812 215.429688 L 596.425781 232.496094 Z M 638.96875 219.792969 "
     fill-opacity="1"
     fill-rule="nonzero"
     id="path25"
     style="fill:#ffffff;fill-opacity:1" />
  <path
     fill="#000000"
     d="M 298.304688 322.441406 C 298.304688 321.417969 298.40625 320.402344 298.605469 319.398438 C 298.804688 318.394531 299.101562 317.421875 299.492188 316.476562 C 299.882812 315.53125 300.363281 314.632812 300.933594 313.78125 C 301.5 312.929688 302.148438 312.140625 302.871094 311.417969 C 303.59375 310.695312 304.382812 310.046875 305.234375 309.480469 C 306.082031 308.910156 306.980469 308.429688 307.925781 308.039062 C 308.871094 307.648438 309.847656 307.351562 310.851562 307.152344 C 311.855469 306.953125 312.867188 306.851562 313.890625 306.851562 C 314.914062 306.851562 315.925781 306.953125 316.929688 307.152344 C 317.933594 307.351562 318.910156 307.648438 319.855469 308.039062 C 320.800781 308.429688 321.699219 308.910156 322.546875 309.480469 C 323.398438 310.046875 324.1875 310.695312 324.910156 311.417969 C 325.632812 312.140625 326.28125 312.929688 326.847656 313.78125 C 327.417969 314.632812 327.894531 315.53125 328.289062 316.476562 C 328.679688 317.421875 328.976562 318.394531 329.175781 319.398438 C 329.375 320.402344 329.472656 321.417969 329.472656 322.441406 L 329.472656 648.46875 C 329.472656 649.492188 329.375 650.507812 329.175781 651.511719 C 328.976562 652.515625 328.679688 653.488281 328.289062 654.4375 C 327.894531 655.382812 327.417969 656.28125 326.847656 657.128906 C 326.28125 657.980469 325.632812 658.769531 324.910156 659.492188 C 324.1875 660.214844 323.398438 660.863281 322.546875 661.429688 C 321.699219 662 320.800781 662.480469 319.855469 662.871094 C 318.910156 663.261719 317.933594 663.558594 316.929688 663.757812 C 315.925781 663.957031 314.914062 664.058594 313.890625 664.058594 C 312.867188 664.058594 311.855469 663.957031 310.851562 663.757812 C 309.847656 663.558594 308.871094 663.261719 307.925781 662.871094 C 306.980469 662.480469 306.082031 662 305.234375 661.429688 C 304.382812 660.863281 303.59375 660.214844 302.871094 659.492188 C 302.148438 658.769531 301.5 657.980469 300.933594 657.128906 C 300.363281 656.28125 299.882812 655.382812 299.492188 654.4375 C 299.101562 653.488281 298.804688 652.515625 298.605469 651.511719 C 298.40625 650.507812 298.304688 649.492188 298.304688 648.46875 Z M 298.304688 322.441406 "
     fill-opacity="1"
     fill-rule="nonzero"
     id="path27"
     style="fill:#ffffff;fill-opacity:1" />
  <path
     fill="#000000"
     d="M 307.265625 337.5625 C 306.851562 336.625 306.535156 335.65625 306.308594 334.65625 C 306.085938 333.660156 305.960938 332.648438 305.9375 331.625 C 305.914062 330.597656 305.988281 329.582031 306.164062 328.574219 C 306.339844 327.566406 306.613281 326.582031 306.980469 325.628906 C 307.351562 324.671875 307.808594 323.761719 308.355469 322.898438 C 308.90625 322.03125 309.53125 321.230469 310.238281 320.488281 C 310.945312 319.746094 311.71875 319.082031 312.554688 318.492188 C 313.390625 317.902344 314.277344 317.398438 315.214844 316.984375 C 316.152344 316.570312 317.117188 316.25 318.117188 316.027344 C 319.117188 315.804688 320.128906 315.679688 321.152344 315.65625 C 322.175781 315.628906 323.191406 315.707031 324.199219 315.882812 C 325.210938 316.058594 326.191406 316.328125 327.144531 316.699219 C 328.101562 317.066406 329.011719 317.527344 329.875 318.074219 C 330.742188 318.625 331.542969 319.25 332.285156 319.957031 C 333.027344 320.664062 333.691406 321.4375 334.28125 322.273438 C 334.871094 323.113281 335.371094 324 335.785156 324.933594 L 478.144531 642.15625 C 478.566406 643.09375 478.894531 644.0625 479.125 645.0625 C 479.355469 646.0625 479.488281 647.078125 479.519531 648.105469 C 479.550781 649.132812 479.480469 650.152344 479.3125 651.164062 C 479.144531 652.179688 478.875 653.164062 478.511719 654.125 C 478.148438 655.085938 477.695312 656.003906 477.152344 656.875 C 476.609375 657.746094 475.984375 658.554688 475.28125 659.304688 C 474.578125 660.050781 473.808594 660.726562 472.972656 661.320312 C 472.136719 661.917969 471.25 662.429688 470.3125 662.851562 C 469.378906 663.273438 468.410156 663.597656 467.40625 663.832031 C 466.40625 664.0625 465.394531 664.195312 464.367188 664.226562 C 463.339844 664.257812 462.320312 664.1875 461.308594 664.019531 C 460.296875 663.851562 459.308594 663.582031 458.347656 663.21875 C 457.386719 662.855469 456.472656 662.402344 455.601562 661.859375 C 454.730469 661.3125 453.917969 660.691406 453.171875 659.984375 C 452.421875 659.28125 451.75 658.511719 451.152344 657.675781 C 450.558594 656.839844 450.046875 655.953125 449.625 655.015625 Z M 307.265625 337.5625 "
     fill-opacity="1"
     fill-rule="nonzero"
     id="path29"
     style="fill:#ffffff;fill-opacity:1" />
  <path
     fill="#000000"
     d="M 293.242188 322.910156 C 293.664062 321.972656 294.175781 321.085938 294.769531 320.25 C 295.367188 319.414062 296.039062 318.644531 296.789062 317.941406 C 297.535156 317.238281 298.347656 316.617188 299.21875 316.074219 C 300.089844 315.527344 301.003906 315.074219 301.964844 314.710938 C 302.925781 314.347656 303.910156 314.082031 304.921875 313.914062 C 305.9375 313.746094 306.957031 313.675781 307.980469 313.707031 C 309.007812 313.738281 310.023438 313.871094 311.023438 314.101562 C 312.023438 314.335938 312.992188 314.660156 313.925781 315.082031 C 314.863281 315.503906 315.75 316.015625 316.582031 316.609375 C 317.417969 317.207031 318.1875 317.878906 318.890625 318.628906 C 319.597656 319.375 320.21875 320.1875 320.761719 321.054688 C 321.308594 321.925781 321.761719 322.84375 322.125 323.804688 C 322.488281 324.765625 322.753906 325.75 322.925781 326.765625 C 323.09375 327.777344 323.164062 328.796875 323.132812 329.824219 C 323.101562 330.847656 322.96875 331.863281 322.738281 332.863281 C 322.507812 333.863281 322.183594 334.832031 321.761719 335.769531 L 178.699219 655.328125 C 178.277344 656.273438 177.765625 657.164062 177.167969 658.007812 C 176.570312 658.851562 175.894531 659.628906 175.144531 660.339844 C 174.394531 661.046875 173.582031 661.679688 172.703125 662.226562 C 171.828125 662.777344 170.910156 663.238281 169.945312 663.605469 C 168.976562 663.976562 167.984375 664.246094 166.96875 664.417969 C 165.949219 664.59375 164.921875 664.664062 163.890625 664.636719 C 162.855469 664.605469 161.835938 664.476562 160.828125 664.246094 C 159.820312 664.015625 158.84375 663.691406 157.902344 663.269531 C 156.957031 662.847656 156.0625 662.335938 155.21875 661.738281 C 154.378906 661.140625 153.601562 660.46875 152.890625 659.714844 C 152.179688 658.964844 151.550781 658.152344 151 657.277344 C 150.449219 656.402344 149.988281 655.480469 149.621094 654.515625 C 149.25 653.550781 148.980469 652.558594 148.804688 651.539062 C 148.632812 650.519531 148.558594 649.492188 148.585938 648.460938 C 148.613281 647.425781 148.742188 646.40625 148.972656 645.398438 C 149.203125 644.390625 149.527344 643.414062 149.949219 642.46875 Z M 293.242188 322.910156 "
     fill-opacity="1"
     fill-rule="nonzero"
     id="path31"
     style="fill:#ffffff;fill-opacity:1" />
  <path
     fill="#000000"
     d="M 314.515625 226.261719 C 317.804688 226.25 321.066406 226.5625 324.296875 227.195312 C 327.527344 227.832031 330.664062 228.777344 333.707031 230.035156 C 336.75 231.292969 339.640625 232.835938 342.375 234.667969 C 345.113281 236.5 347.644531 238.582031 349.96875 240.914062 C 352.296875 243.226562 354.378906 245.746094 356.210938 248.46875 C 358.042969 251.191406 359.589844 254.066406 360.855469 257.097656 C 362.117188 260.128906 363.074219 263.25 363.71875 266.46875 C 364.367188 269.6875 364.691406 272.9375 364.695312 276.222656 C 364.695312 279.527344 364.371094 282.804688 363.726562 286.046875 C 363.082031 289.289062 362.128906 292.4375 360.867188 295.496094 C 359.605469 298.550781 358.054688 301.453125 356.21875 304.203125 C 354.386719 306.953125 352.300781 309.5 349.96875 311.839844 C 349.242188 312.566406 348.492188 313.269531 347.722656 313.945312 C 346.953125 314.625 346.164062 315.28125 345.351562 315.910156 C 344.542969 316.542969 343.714844 317.148438 342.867188 317.726562 C 342.019531 318.304688 341.15625 318.859375 340.277344 319.386719 C 339.394531 319.914062 338.5 320.410156 337.589844 320.882812 C 336.675781 321.355469 335.75 321.796875 334.8125 322.210938 C 333.875 322.628906 332.921875 323.011719 331.960938 323.371094 C 331 323.726562 330.027344 324.054688 329.042969 324.351562 C 328.0625 324.648438 327.070312 324.914062 326.074219 325.148438 C 325.074219 325.386719 324.070312 325.589844 323.058594 325.765625 C 322.046875 325.9375 321.03125 326.082031 320.011719 326.195312 C 318.992188 326.304688 317.96875 326.386719 316.941406 326.4375 C 315.917969 326.484375 314.890625 326.503906 313.867188 326.488281 C 312.839844 326.476562 311.816406 326.429688 310.792969 326.355469 C 309.769531 326.277344 308.75 326.171875 307.730469 326.03125 C 306.714844 325.890625 305.703125 325.722656 304.699219 325.519531 C 303.691406 325.320312 302.691406 325.085938 301.699219 324.824219 C 300.707031 324.5625 299.726562 324.269531 298.75 323.945312 C 297.777344 323.625 296.8125 323.273438 295.859375 322.890625 C 294.910156 322.507812 293.96875 322.097656 293.042969 321.65625 C 292.113281 321.21875 291.199219 320.75 290.300781 320.253906 C 289.402344 319.757812 288.519531 319.234375 287.65625 318.6875 C 286.789062 318.136719 285.9375 317.558594 285.109375 316.957031 C 284.277344 316.355469 283.464844 315.730469 282.671875 315.078125 C 281.878906 314.425781 281.105469 313.75 280.355469 313.050781 C 279.605469 312.351562 278.875 311.632812 278.167969 310.886719 C 277.460938 310.144531 276.777344 309.378906 276.117188 308.59375 C 275.457031 307.808594 274.820312 307 274.210938 306.175781 C 273.597656 305.351562 273.015625 304.507812 272.457031 303.648438 C 271.894531 302.789062 271.363281 301.910156 270.859375 301.015625 C 270.351562 300.125 269.875 299.214844 269.425781 298.292969 C 268.976562 297.371094 268.554688 296.433594 268.164062 295.484375 C 267.769531 294.539062 267.410156 293.578125 267.074219 292.605469 C 266.742188 291.636719 266.4375 290.65625 266.164062 289.667969 C 265.890625 288.675781 265.648438 287.679688 265.4375 286.675781 C 265.226562 285.671875 265.042969 284.660156 264.894531 283.644531 C 264.742188 282.628906 264.625 281.613281 264.535156 280.589844 C 264.449219 279.566406 264.394531 278.542969 264.367188 277.515625 C 264.34375 276.488281 264.347656 275.464844 264.386719 274.4375 C 264.425781 273.410156 264.496094 272.386719 264.597656 271.367188 C 264.695312 270.34375 264.828125 269.328125 264.992188 268.3125 C 265.15625 267.300781 265.351562 266.292969 265.574219 265.292969 C 265.800781 264.289062 266.054688 263.296875 266.339844 262.3125 C 266.628906 261.324219 266.941406 260.347656 267.289062 259.382812 C 267.636719 258.414062 268.011719 257.460938 268.414062 256.519531 C 268.820312 255.574219 269.253906 254.644531 269.714844 253.726562 C 270.175781 252.808594 270.664062 251.910156 271.179688 251.023438 C 271.699219 250.136719 272.242188 249.265625 272.8125 248.410156 C 273.382812 247.558594 273.976562 246.722656 274.597656 245.90625 C 275.21875 245.089844 275.867188 244.292969 276.535156 243.515625 C 277.207031 242.738281 277.898438 241.980469 278.617188 241.246094 C 279.332031 240.511719 280.070312 239.800781 280.832031 239.109375 C 281.59375 238.421875 282.375 237.753906 283.175781 237.113281 C 283.976562 236.472656 284.796875 235.855469 285.632812 235.265625 C 286.472656 234.675781 287.328125 234.109375 288.203125 233.570312 C 289.078125 233.03125 289.964844 232.519531 290.871094 232.035156 C 291.777344 231.550781 292.695312 231.097656 293.628906 230.667969 C 294.5625 230.242188 295.507812 229.84375 296.464844 229.472656 C 297.421875 229.101562 298.386719 228.761719 299.367188 228.453125 C 300.34375 228.144531 301.332031 227.863281 302.328125 227.613281 C 303.324219 227.363281 304.324219 227.144531 305.332031 226.957031 C 306.34375 226.769531 307.355469 226.609375 308.375 226.484375 C 309.390625 226.359375 310.414062 226.265625 311.4375 226.203125 C 312.460938 226.136719 313.488281 226.105469 314.515625 226.105469 Z M 333.292969 257.4375 C 332.070312 256.191406 330.734375 255.078125 329.289062 254.097656 C 327.839844 253.117188 326.3125 252.292969 324.699219 251.625 C 323.085938 250.957031 321.421875 250.453125 319.707031 250.121094 C 317.992188 249.785156 316.261719 249.628906 314.515625 249.644531 C 312.757812 249.640625 311.019531 249.808594 309.292969 250.148438 C 307.570312 250.488281 305.898438 250.992188 304.273438 251.660156 C 302.648438 252.332031 301.105469 253.152344 299.640625 254.121094 C 298.179688 255.09375 296.824219 256.199219 295.578125 257.4375 C 294.328125 258.644531 293.214844 259.960938 292.234375 261.394531 C 291.253906 262.828125 290.429688 264.347656 289.761719 265.949219 C 289.089844 267.550781 288.589844 269.203125 288.257812 270.90625 C 287.925781 272.609375 287.769531 274.332031 287.789062 276.066406 C 287.777344 277.824219 287.9375 279.566406 288.273438 281.292969 C 288.609375 283.019531 289.113281 284.695312 289.78125 286.320312 C 290.449219 287.945312 291.273438 289.488281 292.246094 290.953125 C 293.222656 292.414062 294.335938 293.765625 295.578125 295.007812 C 296.828125 296.242188 298.183594 297.34375 299.648438 298.3125 C 301.109375 299.285156 302.65625 300.101562 304.277344 300.769531 C 305.902344 301.4375 307.574219 301.945312 309.296875 302.285156 C 311.019531 302.628906 312.757812 302.796875 314.515625 302.800781 C 316.261719 302.8125 317.992188 302.652344 319.703125 302.320312 C 321.417969 301.984375 323.082031 301.484375 324.695312 300.8125 C 326.308594 300.144531 327.839844 299.320312 329.285156 298.34375 C 330.734375 297.363281 332.070312 296.253906 333.292969 295.007812 C 334.53125 293.761719 335.636719 292.40625 336.605469 290.941406 C 337.578125 289.476562 338.398438 287.933594 339.066406 286.308594 C 339.734375 284.683594 340.238281 283.011719 340.578125 281.289062 C 340.917969 279.5625 341.085938 277.824219 341.085938 276.066406 C 341.078125 274.332031 340.90625 272.617188 340.5625 270.921875 C 340.21875 269.222656 339.710938 267.574219 339.042969 265.976562 C 338.375 264.378906 337.558594 262.859375 336.589844 261.421875 C 335.621094 259.988281 334.523438 258.660156 333.292969 257.4375 Z M 333.292969 257.4375 "
     fill-opacity="1"
     fill-rule="nonzero"
     id="path33"
     style="fill:#ffffff;fill-opacity:1" />
</svg>
